<?xml version="1.0" encoding="UTF-8"?>
<svg width="170px" height="34px" viewBox="0 0 170 34" version="1.1" xmlns="http://www.w3.org/2000/svg" xmlns:xlink="http://www.w3.org/1999/xlink">
    <title>Group Copy 6</title>
    <g id="Page-1" stroke="none" stroke-width="1" fill="none" fill-rule="evenodd">
        <g id="Home" transform="translate(-40.000000, -23.000000)">
            <g id="Group-Copy-6" transform="translate(40.000000, 23.000000)">
                <rect id="Rectangle" x="0" y="0" width="170" height="34"></rect>
                <g id="Group-2" transform="translate(9.000000, 4.000000)">
                    <path d="M3.89633824,21.6561647 L3.89633824,6.98585782 L1.77069459,6.98585782 L1.77069459,21.6561647 L3.89633824,21.6561647 Z M9.88511337,21.6561647 L9.88511337,8.51401478 L24.0465604,21.6561647 L26.4813021,21.6561647 L26.4813021,6.98585782 L24.6552458,6.98585782 L24.6552458,19.8223763 L11.2641663,6.98585782 L8.05905707,6.98585782 L8.05905707,21.6561647 L9.88511337,21.6561647 Z M42.4014874,21.6561647 C43.5381163,21.6561647 44.4955324,21.5908996 45.2737357,21.4603696 C46.051939,21.3298395 46.6945218,21.1308607 47.2014842,20.8634333 C47.7084465,20.5960058 48.0991627,20.2617215 48.3736327,19.8605802 C48.6481028,19.459439 48.8483044,18.9866655 48.9742377,18.4422596 C49.1001711,17.8978536 49.1744394,17.2834072 49.1970428,16.5989202 C49.2196463,15.9144333 49.230948,15.1551303 49.230948,14.3210113 C49.230948,13.4868922 49.2196463,12.7275892 49.1970428,12.0431023 C49.1744394,11.3586153 49.1001711,10.7441689 48.9742377,10.1997629 C48.8483044,9.65535702 48.6481028,9.18258346 48.3736327,8.78144225 C48.0991627,8.38030105 47.7084465,8.04601671 47.2014842,7.77858924 C46.6945218,7.51116178 46.051939,7.312183 45.2737357,7.18165293 C44.4955324,7.05112286 43.5381163,6.98585782 42.4014874,6.98585782 L42.4014874,6.98585782 L31.2515454,6.98585782 L31.2515454,21.6561647 L42.4014874,21.6561647 Z M42.4014874,20.1280077 L33.1114836,20.1280077 L33.1114836,8.51401478 L42.4014874,8.51401478 C43.2281266,8.51401478 43.9239889,8.53630041 44.4890743,8.58087165 C45.0541597,8.6254429 45.5207587,8.71617722 45.8888715,8.85307461 C46.2569843,8.98997201 46.5411415,9.18895078 46.7413432,9.45001093 C46.9415449,9.71107107 47.0884671,10.0564982 47.1821098,10.4862924 C47.2757525,10.9160865 47.3306465,11.4445741 47.3467918,12.0717552 C47.3629371,12.6989363 47.3710098,13.4486883 47.3710098,14.3210113 C47.3710098,15.1933342 47.3629371,15.9430862 47.3467918,16.5702673 C47.3306465,17.1974484 47.2757525,17.725936 47.1821098,18.1557301 C47.0884671,18.5855243 46.9415449,18.9309514 46.7413432,19.1920116 C46.5411415,19.4530717 46.2569843,19.6520505 45.8888715,19.7889479 C45.5207587,19.9258453 45.0525451,20.0165796 44.4842307,20.0611509 C43.9159162,20.1057221 43.2216685,20.1280077 42.4014874,20.1280077 L42.4014874,20.1280077 Z M61.9405257,21.6561647 L61.9405257,15.5435368 L70.3102476,6.98585782 L67.83033,6.98585782 L61.0105566,14.1681956 L54.1907832,6.98585782 L51.7108656,6.98585782 L60.0805875,15.5435368 L60.0805875,21.6561647 L61.9405257,21.6561647 Z M81.6138005,22 C82.6470995,22 83.5496216,21.9538369 84.3213668,21.8615108 C85.093112,21.7691846 85.7534547,21.6338791 86.3023948,21.4555941 C86.8513348,21.2773091 87.3034032,21.0608202 87.6585997,20.8061274 C88.0137962,20.5514345 88.2947244,20.2617215 88.5013842,19.9369881 C88.708044,19.6122547 88.8517371,19.254093 88.9324636,18.8625027 C89.0131901,18.4709125 89.0535533,18.0522612 89.0535533,17.6065487 C89.0535533,17.1608363 89.0293354,16.7469604 88.9808995,16.3649212 C88.9324636,15.982882 88.8275192,15.6374548 88.6660662,15.3286397 C88.5046132,15.0198247 88.27535,14.7444381 87.9782766,14.5024799 C87.6812031,14.2605217 87.2824143,14.0583593 86.7819101,13.8959926 C86.2814059,13.7336259 85.6662701,13.611055 84.9365026,13.5282798 C84.2067352,13.4455047 83.3316601,13.4041171 82.3112774,13.4041171 L82.3112774,13.4041171 L79.7538623,13.4041171 C78.9272231,13.4041171 78.2152156,13.3866069 77.6178396,13.3515867 C77.0204636,13.3165664 76.5151158,13.2576687 76.1017962,13.1748935 C75.6884766,13.0921184 75.3558835,12.9870576 75.1040168,12.8597112 C74.8521502,12.7323647 74.6567921,12.5747736 74.5179426,12.3869376 C74.379093,12.1991016 74.2870648,11.9810209 74.241858,11.7326954 C74.1966512,11.4843699 74.1740477,11.2010241 74.1740477,10.8826581 C74.1740477,10.3669051 74.2644614,9.93711096 74.4452887,9.59327564 C74.6261161,9.24944032 74.949022,8.97564553 75.4140065,8.77189127 C75.8789911,8.56813701 76.5118867,8.42328046 77.3126935,8.33732163 C78.1135002,8.25136281 79.1338829,8.20838339 80.3738417,8.20838339 L80.3738417,8.20838339 L82.2337799,8.20838339 C83.163749,8.20838339 83.9451814,8.22907718 84.578077,8.27046477 C85.2109727,8.31185235 85.7211641,8.41372948 86.1086512,8.57609616 C86.4961383,8.73846284 86.7738374,8.98201285 86.9417485,9.30674621 C87.1096596,9.63147956 87.1936151,10.0803757 87.1936151,10.6534345 L87.1936151,10.6534345 L89.0535533,10.6534345 C89.0535533,10.1949874 89.0148046,9.77792794 88.9373072,9.40225602 C88.8598098,9.0265841 88.7225748,8.69070793 88.5256021,8.39462752 C88.3286295,8.09854711 88.0638466,7.84385428 87.7312535,7.63054904 C87.3986604,7.4172438 86.9804972,7.23895882 86.476764,7.0956941 C85.9730307,6.95242939 85.3724257,6.84736859 84.6749488,6.78051173 C83.977472,6.71365486 83.163749,6.68022643 82.2337799,6.68022643 L82.2337799,6.68022643 L80.3738417,6.68022643 C79.2372128,6.68022643 78.2491207,6.72161401 77.4095652,6.80438918 C76.5700098,6.88716435 75.8515441,7.00973527 75.2541681,7.17210195 C74.6567921,7.33446863 74.1675896,7.53663106 73.7865606,7.77858924 C73.4055316,8.02054743 73.1052291,8.29593405 72.8856531,8.6047491 C72.666077,8.91356416 72.5159258,9.2589913 72.4351993,9.64103055 C72.3544728,10.0230698 72.3141095,10.4369456 72.3141095,10.8826581 C72.3141095,11.3092686 72.339942,11.7056343 72.391607,12.0717552 C72.4432719,12.4378762 72.5546745,12.7705687 72.7258146,13.0698327 C72.8969548,13.3690968 73.1472069,13.6349324 73.4765709,13.8673397 C73.805935,14.0997469 74.2450871,14.2939501 74.7940271,14.4499495 C75.3429672,14.6059489 76.0226842,14.7253361 76.8331781,14.8081113 C77.643672,14.8908865 78.6172334,14.932274 79.7538623,14.932274 L79.7538623,14.932274 L82.3112774,14.932274 C83.3445764,14.932274 84.1809027,14.9752535 84.8202565,15.0612123 C85.4596103,15.1471711 85.9552709,15.2920277 86.3072383,15.4957819 C86.6592058,15.6995362 86.8949271,15.973331 87.0144023,16.3171663 C87.1338775,16.6610016 87.1936151,17.0907957 87.1936151,17.6065487 C87.1936151,18.1223017 87.1064305,18.560055 86.9320613,18.9198086 C86.7576921,19.2795622 86.4573896,19.5708672 86.0311538,19.7937234 C85.6049179,20.0165796 85.0333744,20.1789463 84.3165232,20.2808234 C83.5996721,20.3827005 82.6987645,20.4336391 81.6138005,20.4336391 L81.6138005,20.4336391 L79.1338829,20.4336391 C78.2039138,20.4336391 77.424096,20.4129453 76.7944294,20.3715577 C76.1647629,20.3301701 75.656186,20.228293 75.2686989,20.0659263 C74.8812117,19.9035597 74.6035126,19.6600096 74.4356016,19.3352763 C74.2676905,19.0105429 74.1837349,18.5616468 74.1837349,17.988588 L74.1837349,17.988588 L72.3237967,17.988588 C72.3237967,18.4470351 72.3625454,18.8656864 72.4400429,19.244542 C72.5175403,19.6233976 72.6547753,19.9608655 72.8517479,20.256946 C73.0487206,20.5530264 73.3118889,20.8109029 73.641253,21.0305754 C73.970617,21.250248 74.3871657,21.4317166 74.8908989,21.5749813 C75.3946322,21.7182461 75.9952372,21.8248987 76.6927141,21.8949392 C77.3901909,21.9649797 78.2039138,22 79.1338829,22 L79.1338829,22 L81.6138005,22 Z M95.4304843,21.6561647 L95.4304843,15.8491682 L103.480529,15.8491682 C104.617158,15.8491682 105.574574,15.804597 106.352778,15.7154545 C107.130981,15.626312 107.773564,15.4957819 108.280526,15.3238643 C108.787488,15.1519466 109.178205,14.9370495 109.452675,14.679173 C109.727145,14.4212966 109.927346,14.1220325 110.05328,13.7813808 C110.179213,13.4407292 110.253481,13.0602818 110.276085,12.6400386 C110.298688,12.2197954 110.30999,11.7613483 110.30999,11.2646973 C110.30999,10.7871483 110.301917,10.3509868 110.285772,9.95621292 C110.269627,9.56143904 110.209889,9.20486908 110.106559,8.88650304 C110.003229,8.56813701 109.840162,8.29115856 109.617357,8.05556769 C109.394552,7.81997683 109.076489,7.62258989 108.66317,7.46340687 C108.24985,7.30422385 107.725128,7.18483659 107.089003,7.10524508 C106.452878,7.02565357 105.673061,6.98585782 104.74955,6.98585782 L104.74955,6.98585782 L93.5705461,6.98585782 L93.5705461,21.6561647 L95.4304843,21.6561647 Z M103.784389,14.3203397 L95.4304843,14.3210113 L95.4304843,8.51401478 L103.480529,8.51401478 C104.307169,8.51401478 105.003031,8.52356577 105.568116,8.54266773 C106.133202,8.56176969 106.599801,8.6047491 106.967913,8.67160597 C107.336026,8.73846284 107.620183,8.83238082 107.820385,8.95335991 C108.020587,9.074339 108.167509,9.23670568 108.261152,9.44045994 C108.354794,9.64421421 108.409688,9.89572337 108.425834,10.1949874 C108.441979,10.4942515 108.450052,10.8508215 108.450052,11.2646973 C108.450052,11.7104098 108.441979,12.0940408 108.425834,12.4155905 C108.409688,12.7371402 108.354794,13.0125268 108.261152,13.2417504 C108.167509,13.4709739 108.020587,13.6556262 107.820385,13.7957073 C107.620183,13.9357883 107.336026,14.0440328 106.967913,14.1204406 C106.599801,14.1968485 106.133202,14.2493789 105.568116,14.2780318 C105.003031,14.3066848 104.307169,14.3210113 103.480529,14.3210113 L103.784389,14.3203397 Z M126.704847,21.9617961 C127.841476,21.9617961 128.798892,21.8933474 129.577095,21.75645 C130.355299,21.6195526 130.996267,21.4126147 131.5,21.1356362 C132.003733,20.8586578 132.39122,20.510047 132.662461,20.0898038 C132.933702,19.6695606 133.13229,19.1760933 133.258223,18.6094017 C133.384156,18.0427102 133.458425,17.4027945 133.481028,16.6896545 C133.503631,15.9765146 133.514933,15.1869669 133.514933,14.3210113 C133.514933,13.4550556 133.503631,12.6655079 133.481028,11.952368 C133.458425,11.239228 133.384156,10.5993123 133.258223,10.0326208 C133.13229,9.46592923 132.933702,8.97246187 132.662461,8.55221871 C132.39122,8.13197554 132.003733,7.78336474 131.5,7.50638629 C130.996267,7.22940784 130.355299,7.02246991 129.577095,6.88557252 C128.798892,6.74867512 127.841476,6.68022643 126.704847,6.68022643 L126.704847,6.68022643 L121.105658,6.68022643 C119.969029,6.68022643 119.011613,6.74867512 118.23341,6.88557252 C117.455206,7.02246991 116.814238,7.22940784 116.310505,7.50638629 C115.806772,7.78336474 115.41767,8.13197554 115.1432,8.55221871 C114.86873,8.97246187 114.668528,9.46592923 114.542595,10.0326208 C114.416661,10.5993123 114.344008,11.239228 114.324633,11.952368 C114.305259,12.6655079 114.295572,13.4550556 114.295572,14.3210113 C114.295572,15.1869669 114.305259,15.9765146 114.324633,16.6896545 C114.344008,17.4027945 114.416661,18.0427102 114.542595,18.6094017 C114.668528,19.1760933 114.86873,19.6695606 115.1432,20.0898038 C115.41767,20.510047 115.806772,20.8586578 116.310505,21.1356362 C116.814238,21.4126147 117.455206,21.6195526 118.23341,21.75645 C119.011613,21.8933474 119.969029,21.9617961 121.105658,21.9617961 L121.105658,21.9617961 L126.704847,21.9617961 Z M126.704847,20.4336391 L121.105658,20.4336391 C120.279019,20.4336391 119.583156,20.4097617 119.018071,20.3620068 C118.452986,20.3142518 117.986387,20.2171502 117.618274,20.0707018 C117.250161,19.9242535 116.967618,19.7141319 116.770646,19.4403371 C116.573673,19.1665423 116.42998,18.803605 116.339566,18.3515252 C116.249153,17.8994455 116.195873,17.3438967 116.179728,16.6848791 C116.163583,16.0258614 116.15551,15.2379054 116.15551,14.3210113 C116.15551,13.4041171 116.161968,12.6161611 116.174884,11.9571434 C116.187801,11.2981258 116.239466,10.742577 116.329879,10.2904973 C116.420293,9.83841749 116.5656,9.47548021 116.765802,9.20168542 C116.966004,8.92789063 117.250161,8.71776905 117.618274,8.57132067 C117.986387,8.42487229 118.452986,8.32777065 119.018071,8.28001575 C119.583156,8.23226084 120.279019,8.20838339 121.105658,8.20838339 L121.105658,8.20838339 L126.704847,8.20838339 C127.531486,8.20838339 128.227348,8.23226084 128.792434,8.28001575 C129.357519,8.32777065 129.822504,8.42487229 130.187387,8.57132067 C130.552271,8.71776905 130.834814,8.92789063 131.035016,9.20168542 C131.235217,9.47548021 131.380525,9.83841749 131.470939,10.2904973 C131.561352,10.742577 131.614632,11.2981258 131.630777,11.9571434 C131.646922,12.6161611 131.654995,13.4041171 131.654995,14.3210113 L131.654617,14.6588026 C131.652851,15.4328798 131.644904,16.1082386 131.630777,16.6848791 C131.614632,17.3438967 131.561352,17.8994455 131.470939,18.3515252 C131.380525,18.803605 131.235217,19.1665423 131.035016,19.4403371 C130.834814,19.7141319 130.550657,19.9242535 130.182544,20.0707018 C129.814431,20.2171502 129.347832,20.3142518 128.782747,20.3620068 C128.217661,20.4097617 127.525028,20.4336391 126.704847,20.4336391 L126.704847,20.4336391 Z M145.442156,21.6561647 L145.442156,8.51401478 L153,8.51401478 L153,6.98585782 L135.994851,6.98585782 L135.994851,8.51401478 L143.552695,8.51401478 L143.552695,21.6561647 L145.442156,21.6561647 Z" id="INDYSPOT" fill="#114B9B" fill-rule="nonzero"></path>
                    <polygon id="Polygon" fill="#FFAA0D" points="2.83419154 0 5.66838308 4.19151625 0 4.19151625"></polygon>
                </g>
            </g>
        </g>
    </g>
</svg>